# ASF file generated by Tido's ASF writer for MATLAB.
:version 1.10
:name VICON
:units
  mass 1
  length 0.45000000000000001
  angle deg
:documentation
   .ast/.asf automatically generated from VICON data using
   VICON BodyBuilder and BodyLanguage model FoxedUp or BRILLIANT.MOD
:root
  axis xyz
  order tx ty tz rx ry rz 
  position 0 0 0
  orientation 0 0 0
:bonedata
  begin
    id 1
    name lhipjoint
    direction 0.44017800000000001 -0.82263900000000001 0.359871
    length 1.1390085000000001
    axis 0 0 0 xyz
  end
  begin
    id 2
    name lfemur
    direction 0.34201999999999999 -0.939693 0
    length 3.5465939999999998
    axis 0 0 20 xyz
    dof rx ry rz 
    limits (-160 20)
           (-70 70)
           (-60 70)
  end
  begin
    id 3
    name ltibia
    direction 0.34201999999999999 -0.939693 0
    length 3.7970234999999999
    axis 0 0 20 xyz
    dof rx 
    limits (-10 170)
  end
  begin
    id 4
    name lfoot
    direction 0.088635099999999994 -0.24352299999999999 0.96583699999999995
    length 1.1853629999999999
    axis -90 7.62852e-016 20 xyz
    dof rx rz 
    limits (-45 90)
           (-70 20)
  end
  begin
    id 5
    name ltoes
    direction 1.53703e-011 -4.2171700000000001e-011 1
    length 0.59142150000000004
    axis -90 7.62852e-016 20 xyz
    dof rx 
    limits (-90 20)
  end
  begin
    id 6
    name rhipjoint
    direction -0.399779 -0.83977299999999999 0.367367
    length 1.115766
    axis 0 0 0 xyz
  end
  begin
    id 7
    name rfemur
    direction -0.34201999999999999 -0.939693 0
    length 3.4866269999999999
    axis 0 0 -20 xyz
    dof rx ry rz 
    limits (-160 20)
           (-70 70)
           (-70 60)
  end
  begin
    id 8
    name rtibia
    direction -0.34201999999999999 -0.939693 0
    length 3.9349440000000002
    axis 0 0 -20 xyz
    dof rx 
    limits (-10 170)
  end
  begin
    id 9
    name rfoot
    direction -0.108514 -0.29813899999999999 0.94833400000000001
    length 1.1974590000000001
    axis -90 -7.62852e-016 -20 xyz
    dof rx rz 
    limits (-45 90)
           (-20 70)
  end
  begin
    id 10
    name rtoes
    direction -1.5339199999999999e-011 -4.2207699999999999e-011 1
    length 0.59392350000000005
    axis -90 -7.62852e-016 -20 xyz
    dof rx 
    limits (-90 20)
  end
  begin
    id 11
    name lowerback
    direction 0.011325699999999999 0.99986600000000003 0.0118602
    length 1.164123
    axis 0 0 0 xyz
    dof rx ry rz 
    limits (-20 45)
           (-30 30)
           (-30 30)
  end
  begin
    id 12
    name upperback
    direction -0.016474699999999998 0.99519299999999999 -0.096537499999999998
    length 1.135656
    axis 0 0 0 xyz
    dof rx ry rz 
    limits (-20 45)
           (-30 30)
           (-30 30)
  end
  begin
    id 13
    name thorax
    direction -0.019430099999999999 0.99433000000000005 -0.10455200000000001
    length 1.1524455
    axis 0 0 0 xyz
    dof rx ry rz 
    limits (-20 45)
           (-30 30)
           (-30 30)
  end
  begin
    id 14
    name lowerneck
    direction 0.014854300000000001 0.995587 -0.092657000000000003
    length 0.772119
    axis 0 0 0 xyz
    dof rx ry rz 
    limits (-20 45)
           (-30 30)
           (-30 30)
  end
  begin
    id 15
    name upperneck
    direction -0.0135467 0.99365599999999998 -0.111639
    length 0.76021650000000007
    axis 0 0 0 xyz
    dof rx ry rz 
    limits (-20 45)
           (-30 30)
           (-30 30)
  end
  begin
    id 16
    name head
    direction -0.0061534900000000002 0.99954699999999996 -0.029447999999999998
    length 0.78578999999999999
    axis 0 0 0 xyz
    dof rx ry rz 
    limits (-20 45)
           (-30 30)
           (-30 30)
  end
  begin
    id 17
    name lclavicle
    direction 0.98826700000000001 0.14988499999999999 0.029371299999999999
    length 2.012499
    axis 0 0 0 xyz
    dof ry rz 
    limits (-20 10)
           (0 20)
  end
  begin
    id 18
    name lhumerus
    direction 1 -4.4898600000000001e-011 -1.1483300000000001e-027
    length 2.4171659999999999
    axis 180 -30 -90 xyz
    dof rx ry rz 
    limits (-60 90)
           (-90 90)
           (-90 90)
  end
  begin
    id 19
    name lradius
    direction 0.99999800000000005 0.00170963 -0.00098705499999999992
    length 1.773954
    axis 180 -30 -90 xyz
    dof rx 
    limits (-10 170)
  end
  begin
    id 20
    name lwrist
    direction 0.99999800000000005 7.53149e-005 -0.00194706
    length 0.88697700000000002
    axis 4.6505600000000004e-015 90 90 xyz
    dof ry 
    limits (-180 0)
  end
  begin
    id 21
    name lhand
    direction 1 -4.48973e-011 -1.3174599999999999e-026
    length 0.5306265
    axis 8.4064999999999996e-015 90 90 xyz
    dof rx rz 
    limits (-90 90)
           (-45 45)
  end
  begin
    id 22
    name lfingers
    direction 1 -4.49107e-011 -2.6349199999999999e-026
    length 0.42780555000000003
    axis 1.6812999999999999e-014 90 90 xyz
    dof rx 
    limits (0 90)
  end
  begin
    id 23
    name lthumb
    direction 0.70710700000000004 -6.3504800000000005e-011 0.70710700000000004
    length 0.6142455
    axis -90 45 2.8529899999999998e-015 xyz
    dof rx rz 
    limits (-45 45)
           (-45 45)
  end
  begin
    id 24
    name rclavicle
    direction -0.996699 0.064289499999999999 -0.049572499999999999
    length 2.0817494999999999
    axis 0 0 0 xyz
    dof ry rz 
    limits (-10 20)
           (-20 0)
  end
  begin
    id 25
    name rhumerus
    direction -1 -4.4891899999999998e-011 -2.4105900000000001e-027
    length 2.474145
    axis 180 30 90 xyz
    dof rx ry rz 
    limits (-90 60)
           (-90 90)
           (-90 90)
  end
  begin
    id 26
    name rradius
    direction -0.99999899999999997 0.0011810099999999999 -0.00068185800000000003
    length 1.5677145000000001
    axis 180 30 90 xyz
    dof rx 
    limits (-10 170)
  end
  begin
    id 27
    name rwrist
    direction -0.99999899999999997 0.000321823 -0.00132288
    length 0.78385499999999997
    axis 4.6505600000000004e-015 -90 -90 xyz
    dof ry 
    limits (-180 0)
  end
  begin
    id 28
    name rhand
    direction -1 -4.4902199999999998e-011 -1.3174599999999999e-026
    length 0.60719400000000001
    axis 8.4064999999999996e-015 -90 -90 xyz
    dof rx rz 
    limits (-90 90)
           (-45 45)
  end
  begin
    id 29
    name rfingers
    direction -1 -4.4917800000000002e-011 -2.6349199999999999e-026
    length 0.48953249999999998
    axis 1.6812999999999999e-014 -90 -90 xyz
    dof rx 
    limits (0 90)
  end
  begin
    id 30
    name rthumb
    direction -0.70710700000000004 -6.3471300000000002e-011 0.70710700000000004
    length 0.70287750000000004
    axis -90 -45 -2.8529899999999998e-015 xyz
    dof rx rz 
    limits (-45 45)
           (-45 45)
  end
:hierarchy
begin
  root lhipjoint rhipjoint lowerback 
  lhipjoint lfemur 
  lfemur ltibia 
  ltibia lfoot 
  lfoot ltoes 
  rhipjoint rfemur 
  rfemur rtibia 
  rtibia rfoot 
  rfoot rtoes 
  lowerback upperback 
  upperback thorax 
  thorax lowerneck lclavicle rclavicle 
  lowerneck upperneck 
  upperneck head 
  lclavicle lhumerus 
  lhumerus lradius 
  lradius lwrist 
  lwrist lhand lthumb 
  lhand lfingers 
  rclavicle rhumerus 
  rhumerus rradius 
  rradius rwrist 
  rwrist rhand rthumb 
  rhand rfingers 
end

# AMC file generated by Tido's AMC writer for MATLAB on 27-Nov-2005 at 18:24:20
# Corresponding ASF file: S:\data_MoCap\MoCaDaDB\HDM\Bonn_ASF_AMC_Use IK_on\björn\bjorn.asf
# Number of frames: 542
# Sampling rate: 120
:fully-specified
:degrees
1
root -8.2795950000000005 8.4966299999999997 -4.9368600000000002 183.84800000000001 -4.6657400000000004 537.69600000000003 
lfemur -16.4697 6.7915400000000004 -19.409300000000002 
ltibia 37.172400000000003 
lfoot -17.710799999999999 -13.8597 
ltoes -5.8245699999999996 
rfemur -8.3674300000000006 -14.9587 15.570399999999999 
rtibia 35.4467 
rfoot -28.360900000000001 -2.7168199999999998 
rtoes -15.198700000000001 
lowerback -4.70791 1.7892600000000001 -2.5676700000000001 
upperback 9.0818700000000003 2.2626599999999999 -2.83718 
thorax 12.4734 0.70450500000000005 -1.3731899999999999 
lowerneck 1.1878899999999999 -4.7953700000000001 1.7999400000000001 
upperneck 19.654299999999999 -9.4976699999999994 4.9318600000000004 
head 5.94034 -4.8394000000000004 0.73319900000000005 
lclavicle 2.5842e-014 7.0767300000000004e-014 
lhumerus -28.238099999999999 1.56395 84.864000000000004 
lradius 24.230599999999999 
lwrist -25.510000000000002 
lhand -16.2042 -9.9934399999999997 
lfingers 7.1250200000000001 
lthumb 10.0032 19.748799999999999 
rclavicle 2.5842e-014 7.0767300000000004e-014 
rhumerus -25.136600000000001 -19.886500000000002 -87.921499999999995 
rradius 24.710699999999999 
rwrist 9.5511199999999992 
rhand -11.967499999999999 12.6721 
rfingers 7.1250200000000001 
rthumb 14.0883 -16.830400000000001 
2
root -8.2799999999999994 8.4977100000000014 -4.9455450000000001 183.86199999999999 -4.73299 537.69600000000003 
lfemur -16.382899999999999 7.0350400000000004 -19.3658 
ltibia 37.0792 
lfoot -17.686 -14.213200000000001 
ltoes -5.7759999999999998 
rfemur -8.5036699999999996 -15.0632 15.5646 
rtibia 35.802300000000002 
rfoot -28.341100000000001 -2.70323 
rtoes -14.6008 
lowerback -4.5918799999999997 1.81012 -2.9405999999999999 
upperback 9.1029400000000003 2.3189000000000002 -2.9735900000000002 
thorax 12.4185 0.69594400000000001 -1.3093600000000001 
lowerneck 1.1697 -4.8751100000000003 1.89391 
upperneck 19.6111 -9.6597600000000003 5.1726400000000003 
head 5.9423599999999999 -4.8985799999999999 0.78441300000000003 
lclavicle 7.7526000000000006e-015 -3.4191e-014 
lhumerus -28.1736 1.6839500000000001 84.671300000000002 
lradius 24.0046 
lwrist -25.7227 
lhand -16.033899999999999 -10.0608 
lfingers 7.1250200000000001 
lthumb 10.1675 19.6736 
rclavicle 7.7526000000000006e-015 -3.4191e-014 
rhumerus -25.073699999999999 -19.718599999999999 -88.195999999999998 
rradius 24.779299999999999 
rwrist 9.5199800000000003 
rhand -11.8874 12.9976 
rfingers 7.1250200000000001 
rthumb 14.1655 -16.499400000000001 
3
root -8.2799999999999994 8.4988349999999997 -4.9540950000000006 183.84899999999999 -4.7904099999999996 537.71799999999996 
lfemur -16.246099999999998 7.2797099999999997 -19.295000000000002 
ltibia 36.955100000000002 
lfoot -17.673500000000001 -14.5449 
ltoes -5.9565200000000003 
rfemur -8.65977 -15.096399999999999 15.587199999999999 
rtibia 36.231699999999996 
rfoot -28.283799999999999 -2.7242199999999999 
rtoes -13.8093 
lowerback -4.4697399999999998 1.82907 -3.2757200000000002 
upperback 9.1554400000000005 2.3626399999999999 -3.10609 
thorax 12.3978 0.68220000000000003 -1.2656499999999999 
lowerneck 1.1295999999999999 -4.9388500000000004 1.92716 
upperneck 19.5427 -9.8070900000000005 5.4925800000000002 
head 5.9464399999999999 -4.9489700000000001 0.87022999999999995 
lclavicle -4.1347200000000001e-014 7.9513900000000002e-016 
lhumerus -28.082899999999999 1.91228 84.4315 
lradius 23.757100000000001 
lwrist -26.0124 
lhand -15.934900000000001 -10.1533 
lfingers 7.1250200000000001 
lthumb 10.2629 19.5763 
rclavicle -4.1347200000000001e-014 7.9513900000000002e-016 
rhumerus -24.908799999999999 -19.856200000000001 -88.474900000000005 
rradius 24.740200000000002 
rwrist 9.8252100000000002 
rhand -11.8371 13.436299999999999 
rfingers 7.1250200000000001 
rthumb 14.214 -16.057400000000001 
4
root -8.2806750000000005 8.5008599999999994 -4.9624649999999999 183.858 -4.7913800000000002 537.74000000000001 
lfemur -16.119800000000001 7.5300700000000003 -19.242699999999999 
ltibia 36.8035 
lfoot -17.700900000000001 -14.751099999999999 
ltoes -6.4206500000000002 
rfemur -8.8967200000000002 -15.164 15.5939 
rtibia 36.756100000000004 
rfoot -28.158899999999999 -2.7380599999999999 
rtoes -13.527200000000001 
lowerback -4.3417899999999996 1.8735900000000001 -3.5742699999999998 
upperback 9.1851400000000005 2.4382700000000002 -3.2576000000000001 
thorax 12.349399999999999 0.68936500000000001 -1.25813 
lowerneck 1.13253 -5.0194200000000002 2.02427 
upperneck 19.423999999999999 -9.9665199999999992 5.7883599999999999 
head 5.9242499999999998 -5.0048500000000002 0.94037199999999999 
lclavicle 2.4251700000000001e-014 4.9298600000000002e-014 
lhumerus -27.982099999999999 2.2460100000000001 84.139200000000002 
lradius 23.460100000000001 
lwrist -26.495200000000001 
lhand -15.894500000000001 -10.184699999999999 
lfingers 7.1250200000000001 
lthumb 10.3019 19.542999999999999 
rclavicle 2.4251700000000001e-014 4.9298600000000002e-014 
rhumerus -24.858599999999999 -19.451000000000001 -88.750100000000003 
rradius 24.870699999999999 
rwrist 9.5070800000000002 
rhand -11.7065 13.835800000000001 
rfingers 7.1250200000000001 
rthumb 14.3399 -15.648899999999999 
5
root -8.281035000000001 8.5041449999999994 -4.9711500000000006 183.86600000000001 -4.7584200000000001 537.75999999999999 
lfemur -15.9658 7.7701599999999997 -19.186 
ltibia 36.623399999999997 
lfoot -17.6738 -14.959899999999999 
ltoes -6.6926199999999998 
rfemur -9.1865600000000001 -15.185 15.5977 
rtibia 37.371499999999997 
rfoot -28.072800000000001 -2.7201300000000002 
rtoes -13.2446 
lowerback -4.2205000000000004 1.9121300000000001 -3.8689399999999998 
upperback 9.21678 2.50325 -3.39418 
thorax 12.3066 0.69083099999999997 -1.2383299999999999 
lowerneck 1.0910500000000001 -5.0982599999999998 2.0605099999999998 
upperneck 19.3689 -10.1233 6.0379100000000001 
head 5.9300300000000004 -5.0638800000000002 1.0029399999999999 
lclavicle -2.7829899999999999e-015 2.62396e-014 
lhumerus -27.8657 2.5902699999999999 83.862300000000005 
lradius 23.1343 
lwrist -26.950700000000001 
lhand -15.970599999999999 -10.1732 
lfingers 7.1250200000000001 
lthumb 10.2285 19.5581 
rclavicle -2.7829899999999999e-015 2.62396e-014 
rhumerus -24.668600000000001 -19.652100000000001 -89.001800000000003 
rradius 24.788399999999999 
rwrist 9.8870000000000005 
rhand -11.643800000000001 14.222099999999999 
rfingers 7.1250200000000001 
rthumb 14.4002 -15.2583 
